<svg width="1080" height="1080" viewBox="100 400 300 300">
  <path fill="#000000" d="M0 0 C3 0 7 0 10 0 C11 0 12 0 14 0 C32 0 43 11 56 23 C57 24 58 25 59 26 C63 30 67 35 70 40 C73 43 74 45 78 46 C82 46 84 46 87 43 C89 41 90 39 92 37 C104 22 119 3 139 0 C143 0 146 0 150 0 C153 0 157 0 160 0 C160 10 160 20 160 31 C147 31 147 31 143 31 C129 32 118 35 108 45 C104 49 101 53 98 58 C95 64 92 67 86 70 C80 71 75 71 70 69 C66 65 64 61 61 57 C53 44 43 36 28 32 C23 31 18 31 13 31 C9 31 5 31 0 31 C0 21 0 11 0 0 Z " transform="translate(171,502)"/>
  <path fill="#000000" d="M0 0 C4 0 8 0 12 0 C14 0 15 0 17 0 C19 0 21 0 23 0 C33 0 37 4 41 9 C44 12 47 15 50 17 C51 18 52 19 53 20 C53 21 53 22 53 23 C36 23 18 23 0 23 C0 15 0 8 0 0 Z " transform="translate(171,558)"/>
  <path fill="#000000" d="M0 0 C1 0 1 0 2 0 C4 0 6 0 8 0 C10 0 11 0 13 0 C16 0 20 0 23 0 C23 8 23 15 23 23 C6 23 -12 23 -30 23 C-29 18 -27 17 -23 14 C-23 13 -22 12 -21 12 C-20 11 -18 9 -17 8 C-16 7 -15 6 -14 6 C-9 1 -7 0 0 0 Z " transform="translate(307.7578125,557.90234375)"/>
</svg>
