<svg viewBox="171 558 160 23" xmlns="http://www.w3.org/2000/svg">
  <!-- M icon only - cropped from full logo -->
  <path fill="currentColor" d="M0 0 C4 0 8 0 12 0 C14 0 15 0 17 0 C19 0 21 0 23 0 C33 0 37 4 41 9 C44 12 47 15 50 17 C51 18 52 19 53 20 C53 21 53 22 53 23 C36 23 18 23 0 23 C0 15 0 8 0 0 Z " transform="translate(171,558)"/>
  <path fill="currentColor" d="M0 0 C1 0 1 0 2 0 C4 0 6 0 8 0 C10 0 11 0 13 0 C16 0 20 0 23 0 C23 8 23 15 23 23 C6 23 -12 23 -30 23 C-29 18 -27 17 -23 14 C-23 13 -22 12 -21 12 C-20 11 -18 9 -17 8 C-16 7 -15 6 -14 6 C-9 1 -7 0 0 0 Z " transform="translate(307.7578125,557.90234375)"/>
</svg>
