<svg viewBox="140 460 800 140" xmlns="http://www.w3.org/2000/svg">
  <path fill="currentColor" d="M0 0 C2 1 2 1 4 0 C4 0 5 0 6 -1 C7 -2 9 -3 11 -4 C12 -4 12 -5 13 -5 C21 -8 28 -8 35 -5 C43 -2 50 5 53 13 C55 18 54 23 54 28 C54 29 54 30 54 32 C54 35 54 38 54 42 C54 45 54 48 54 52 C54 58 54 65 54 72 C47 72 40 72 34 72 C34 70 34 69 34 67 C34 61 34 55 34 49 C34 46 34 44 34 41 C34 37 34 34 34 30 C34 28 34 27 34 26 C34 25 34 24 34 23 C33 17 31 16 29 14 C25 11 21 12 17 13 C14 14 14 14 13 16 C13 17 13 17 13 19 C14 24 14 28 14 32 C14 33 14 34 14 35 C14 37 14 39 14 41 C14 44 14 47 14 50 C14 51 14 53 14 55 C14 56 14 57 14 58 C14 59 14 59 14 60 C14 61 14 62 14 62 C14 66 13 69 13 72 C7 72 1 72 -4 72 C-4 70 -4 69 -4 67 C-4 62 -4 56 -4 51 C-4 48 -4 46 -4 44 C-4 40 -4 37 -4 33 C-4 32 -4 31 -4 30 C-5 24 -5 20 -9 16 C-14 12 -17 11 -23 11 C-27 12 -28 14 -30 17 C-31 20 -31 22 -31 25 C-31 26 -31 27 -31 28 C-31 30 -31 30 -31 31 C-31 33 -31 34 -31 35 C-32 39 -32 42 -32 46 C-32 48 -32 51 -32 53 C-32 60 -32 66 -32 72 C-38 72 -43 72 -49 72 C-49 64 -49 57 -49 49 C-49 47 -49 44 -49 42 C-49 38 -49 34 -49 31 C-49 30 -49 28 -49 27 C-50 17 -48 7 -40 -1 C-28 -10 -12 -9 0 0 Z " transform="translate(816.2109375,510.20703125)"/>
  <path fill="currentColor" d="M0 0 C1 0 1 0 2 1 C4 2 4 2 6 1 C6 1 7 1 8 0 C9 -1 11 -2 13 -2 C13 -3 14 -3 15 -4 C22 -7 30 -6 37 -4 C44 -1 51 5 55 12 C56 15 56 18 56 21 C56 22 56 23 56 25 C56 26 56 27 56 28 C56 30 56 32 56 35 C56 39 56 42 56 46 C56 50 56 53 56 56 C56 60 56 66 56 73 C50 73 43 73 37 73 C36 72 36 71 36 69 C36 63 36 58 36 52 C36 50 36 47 36 45 C36 41 36 37 36 34 C36 33 36 31 36 31 C36 25 36 21 33 16 C29 14 27 13 23 13 C19 14 17 15 15 17 C15 18 15 18 15 19 C16 24 16 30 16 35 C16 36 16 37 16 38 C16 42 16 45 16 49 C16 51 16 53 16 56 C16 62 16 67 16 73 C10 73 4 73 -1 73 C-1 71 -1 71 -1 69 C-1 64 -1 59 -1 54 C-1 52 -1 50 -1 48 C-1 45 -1 42 -1 39 C-1 37 -1 37 -1 36 C-2 30 -2 23 -7 18 C-12 13 -15 13 -21 13 C-24 13 -24 13 -26 15 C-29 19 -29 23 -30 27 C-30 28 -30 29 -30 30 C-30 32 -30 33 -30 34 C-30 35 -30 36 -30 37 C-30 41 -30 44 -30 48 C-30 50 -30 53 -30 55 C-30 61 -30 67 -30 73 C-36 73 -42 73 -47 73 C-47 66 -47 58 -47 51 C-47 48 -47 46 -47 44 C-47 40 -47 36 -47 33 C-47 31 -47 30 -47 29 C-48 19 -46 9 -38 1 C-27 -8 -12 -8 0 0 Z " transform="translate(421.375,508.8125)"/>
  <path fill="currentColor" d="M0 0 C3 0 7 0 10 0 C11 0 12 0 14 0 C32 0 43 11 56 23 C57 24 58 25 59 26 C63 30 67 35 70 40 C73 43 74 45 78 46 C82 46 84 46 87 43 C89 41 90 39 92 37 C104 22 119 3 139 0 C143 0 146 0 150 0 C153 0 157 0 160 0 C160 10 160 20 160 31 C147 31 147 31 143 31 C129 32 118 35 108 45 C104 49 101 53 98 58 C95 64 92 67 86 70 C80 71 75 71 70 69 C66 65 64 61 61 57 C53 44 43 36 28 32 C23 31 18 31 13 31 C9 31 5 31 0 31 C0 21 0 11 0 0 Z " transform="translate(171,502)"/>
  <path fill="currentColor" d="M0 0 C8 6 13 15 15 25 C16 38 14 48 6 58 C-3 67 -12 72 -24 72 C-36 71 -45 67 -54 59 C-61 51 -64 40 -64 29 C-63 16 -57 7 -47 -1 C-33 -11 -14 -10 0 0 Z M-40 17 C-45 24 -46 29 -45 37 C-43 43 -40 47 -35 50 C-29 53 -25 54 -18 52 C-12 50 -8 46 -5 41 C-3 35 -2 31 -4 25 C-6 19 -10 16 -16 12 C-24 9 -34 11 -40 17 Z " transform="translate(736.9375,510.6875)"/>
  <path fill="currentColor" d="M0 0 C10 8 16 17 17 30 C17 40 15 50 8 57 C0 66 -7 72 -19 73 C-32 73 -41 70 -51 61 C-59 51 -63 42 -63 30 C-61 17 -55 8 -46 0 C-33 -9 -13 -9 0 0 Z M-40 20 C-43 25 -45 30 -44 37 C-42 43 -39 48 -33 51 C-27 54 -23 54 -17 53 C-10 51 -7 47 -3 42 C-1 36 -1 29 -3 24 C-6 19 -10 15 -16 12 C-26 11 -32 13 -40 20 Z " transform="translate(554.3125,509.6875)"/>
  <path fill="currentColor" d="M0 0 C6 5 11 11 11 20 C11 23 11 26 11 29 C11 30 11 31 11 33 C11 36 11 40 11 44 C11 46 11 49 11 51 C11 58 11 64 11 70 C5 70 0 70 -6 70 C-6 69 -6 67 -6 66 C-6 60 -6 55 -6 49 C-6 47 -6 45 -6 42 C-6 39 -6 36 -6 32 C-6 31 -6 30 -6 29 C-7 23 -7 19 -11 14 C-16 10 -22 9 -28 10 C-32 10 -36 11 -39 14 C-43 20 -44 25 -44 32 C-44 33 -44 35 -44 36 C-44 39 -44 43 -44 46 C-44 48 -44 51 -44 53 C-44 61 -44 67 -44 70 C-50 70 -55 70 -61 70 C-61 63 -61 55 -61 48 C-61 45 -61 43 -61 40 C-61 37 -61 33 -61 29 C-61 28 -61 27 -61 26 C-61 17 -59 8 -52 1 C-37 -12 -16 -13 0 0 Z " transform="translate(647,512)"/>
  <path fill="currentColor" d="M0 0 C6 0 13 0 19 0 C19 26 19 52 19 79 C13 79 6 79 0 79 C0 53 0 27 0 0 Z " transform="translate(887,503)"/>
  <path fill="currentColor" d="M0 0 C4 0 8 0 12 0 C14 0 15 0 17 0 C19 0 21 0 23 0 C33 0 37 4 41 9 C44 12 47 15 50 17 C51 18 52 19 53 20 C53 21 53 22 53 23 C36 23 18 23 0 23 C0 15 0 8 0 0 Z " transform="translate(171,558)"/>
  <path fill="currentColor" d="M0 0 C1 0 1 0 2 0 C4 0 6 0 8 0 C10 0 11 0 13 0 C16 0 20 0 23 0 C23 8 23 15 23 23 C6 23 -12 23 -30 23 C-29 18 -27 17 -23 14 C-23 13 -22 12 -21 12 C-20 11 -18 9 -17 8 C-16 7 -15 6 -14 6 C-9 1 -7 0 0 0 Z " transform="translate(307.7578125,557.90234375)"/>
  <path fill="currentColor" d="M0 0 C3 2 4 4 4 7 C5 11 4 13 2 17 C-1 20 -4 21 -8 21 C-12 20 -14 19 -17 16 C-19 13 -18 9 -18 5 C-16 2 -15 0 -11 -1 C-7 -2 -4 -2 0 0 Z " transform="translate(903,477)"/>
</svg>
